<svg width="42" height="46" viewBox="0 0 42 46" fill="none" xmlns="http://www.w3.org/2000/svg">
<path d="M38.66 19.193H37.328V17.321C37.328 14.3 34.852 11.863 31.832 11.863H22.857V7.373C24.037 6.69 24.83 5.414 24.83 3.95C24.83 1.768 23.059 0 20.879 0C18.696 0 16.916 1.769 16.916 3.95C16.916 5.414 17.701 6.69 18.881 7.373V11.863H9.92C6.899 11.863 4.472 14.3 4.472 17.321V19.193H3.091C1.39 19.193 0 20.6 0 22.301V28.954C0 30.654 1.39 32.049 3.091 32.049H4.472V33.936C4.472 36.957 6.899 39.378 9.92 39.378H12.484V42.262C12.484 43.963 13.877 45.342 15.578 45.342H26.174C27.875 45.342 29.254 43.963 29.254 42.262V39.379H31.832C34.853 39.379 37.328 36.957 37.328 33.936V32.05H38.66C40.361 32.05 41.738 30.656 41.738 28.955V22.302C41.738 20.601 40.363 19.193 38.66 19.193ZM8.879 21.271C8.879 19.272 10.5 17.653 12.498 17.653C14.496 17.653 16.115 19.272 16.115 21.271C16.115 23.27 14.496 24.889 12.498 24.889C10.5 24.889 8.879 23.27 8.879 21.271ZM25.804 34.473H15.948C14.315 34.473 12.991 33.157 12.991 31.522C12.991 29.889 14.315 28.573 15.948 28.573H25.805C27.438 28.573 28.762 29.889 28.762 31.522C28.762 33.155 27.437 34.473 25.804 34.473ZM29.254 24.889C27.256 24.889 25.636 23.27 25.636 21.271C25.636 19.272 27.256 17.653 29.254 17.653C31.253 17.653 32.873 19.272 32.873 21.271C32.873 23.27 31.253 24.889 29.254 24.889Z" fill="white"/>
</svg>
