<svg width="580" height="332" viewBox="0 0 580 332" fill="none" xmlns="http://www.w3.org/2000/svg">
<mask id="mask0_3_139" style="mask-type:alpha" maskUnits="userSpaceOnUse" x="0" y="0" width="580" height="332">
<rect width="580" height="332" rx="20" fill="#D9D9D9"/>
</mask>
<g mask="url(#mask0_3_139)">
<rect width="580" height="332" rx="20" fill="#D9D9D9"/>
<g filter="url(#filter0_d_3_139)">
<rect x="40" y="91" width="503" height="201" rx="10" fill="white"/>
</g>
<rect x="-28" width="627" height="61" fill="#454545"/>
<path d="M41.64 28.64H48.38V31.16H41.64V28.64ZM41.88 34.4H49.5V37H38.66V23H49.24V25.6H41.88V34.4ZM50.3808 37L55.2008 30.68L55.1408 32.4L50.5208 26.24H54.0208L56.9408 30.26L55.6208 30.3L58.6408 26.24H61.9608L57.3208 32.34V30.66L62.1208 37H58.5808L55.5208 32.72L56.8208 32.9L53.7808 37H50.3808ZM69.9953 37.16C69.0886 37.16 68.2953 36.96 67.6153 36.56C66.9353 36.16 66.402 35.5533 66.0153 34.74C65.642 33.9133 65.4553 32.8733 65.4553 31.62C65.4553 30.3533 65.6353 29.3133 65.9953 28.5C66.3553 27.6867 66.8753 27.08 67.5553 26.68C68.2353 26.28 69.0486 26.08 69.9953 26.08C71.0086 26.08 71.9153 26.3133 72.7153 26.78C73.5286 27.2333 74.1686 27.8733 74.6353 28.7C75.1153 29.5267 75.3553 30.5 75.3553 31.62C75.3553 32.7533 75.1153 33.7333 74.6353 34.56C74.1686 35.3867 73.5286 36.0267 72.7153 36.48C71.9153 36.9333 71.0086 37.16 69.9953 37.16ZM63.6353 40.88V26.24H66.6153V28.44L66.5553 31.64L66.7553 34.82V40.88H63.6353ZM69.4553 34.6C69.9753 34.6 70.4353 34.48 70.8353 34.24C71.2486 34 71.5753 33.66 71.8153 33.22C72.0686 32.7667 72.1953 32.2333 72.1953 31.62C72.1953 30.9933 72.0686 30.46 71.8153 30.02C71.5753 29.58 71.2486 29.24 70.8353 29C70.4353 28.76 69.9753 28.64 69.4553 28.64C68.9353 28.64 68.4686 28.76 68.0553 29C67.642 29.24 67.3153 29.58 67.0753 30.02C66.8353 30.46 66.7153 30.9933 66.7153 31.62C66.7153 32.2333 66.8353 32.7667 67.0753 33.22C67.3153 33.66 67.642 34 68.0553 34.24C68.4686 34.48 68.9353 34.6 69.4553 34.6ZM82.7839 37.16C81.5572 37.16 80.4772 36.92 79.5439 36.44C78.6239 35.96 77.9106 35.3067 77.4039 34.48C76.8972 33.64 76.6439 32.6867 76.6439 31.62C76.6439 30.54 76.8906 29.5867 77.3839 28.76C77.8906 27.92 78.5772 27.2667 79.4439 26.8C80.3106 26.32 81.2906 26.08 82.3839 26.08C83.4372 26.08 84.3839 26.3067 85.2239 26.76C86.0772 27.2 86.7506 27.84 87.2439 28.68C87.7372 29.5067 87.9839 30.5 87.9839 31.66C87.9839 31.78 87.9772 31.92 87.9639 32.08C87.9506 32.2267 87.9372 32.3667 87.9239 32.5H79.1839V30.68H86.2839L85.0839 31.22C85.0839 30.66 84.9706 30.1733 84.7439 29.76C84.5172 29.3467 84.2039 29.0267 83.8039 28.8C83.4039 28.56 82.9372 28.44 82.4039 28.44C81.8706 28.44 81.3972 28.56 80.9839 28.8C80.5839 29.0267 80.2706 29.3533 80.0439 29.78C79.8172 30.1933 79.7039 30.6867 79.7039 31.26V31.74C79.7039 32.3267 79.8306 32.8467 80.0839 33.3C80.3506 33.74 80.7172 34.08 81.1839 34.32C81.6639 34.5467 82.2239 34.66 82.8639 34.66C83.4372 34.66 83.9372 34.5733 84.3639 34.4C84.8039 34.2267 85.2039 33.9667 85.5639 33.62L87.2239 35.42C86.7306 35.98 86.1106 36.4133 85.3639 36.72C84.6172 37.0133 83.7572 37.16 82.7839 37.16ZM90.0611 37V26.24H93.0411V29.28L92.6211 28.4C92.9411 27.64 93.4544 27.0667 94.1611 26.68C94.8678 26.28 95.7278 26.08 96.7411 26.08V28.96C96.6078 28.9467 96.4878 28.94 96.3811 28.94C96.2744 28.9267 96.1611 28.92 96.0411 28.92C95.1878 28.92 94.4944 29.1667 93.9611 29.66C93.4411 30.14 93.1811 30.8933 93.1811 31.92V37H90.0611ZM98.6158 37V26.24H101.736V37H98.6158ZM100.176 24.74C99.6024 24.74 99.1358 24.5733 98.7758 24.24C98.4158 23.9067 98.2358 23.4933 98.2358 23C98.2358 22.5067 98.4158 22.0933 98.7758 21.76C99.1358 21.4267 99.6024 21.26 100.176 21.26C100.749 21.26 101.216 21.42 101.576 21.74C101.936 22.0467 102.116 22.4467 102.116 22.94C102.116 23.46 101.936 23.8933 101.576 24.24C101.229 24.5733 100.762 24.74 100.176 24.74ZM118.411 26.08C119.265 26.08 120.018 26.2533 120.671 26.6C121.338 26.9333 121.858 27.4533 122.231 28.16C122.618 28.8533 122.811 29.7467 122.811 30.84V37H119.691V31.32C119.691 30.4533 119.511 29.8133 119.151 29.4C118.791 28.9867 118.285 28.78 117.631 28.78C117.178 28.78 116.771 28.8867 116.411 29.1C116.051 29.3 115.771 29.6067 115.571 30.02C115.371 30.4333 115.271 30.96 115.271 31.6V37H112.151V31.32C112.151 30.4533 111.971 29.8133 111.611 29.4C111.265 28.9867 110.765 28.78 110.111 28.78C109.658 28.78 109.251 28.8867 108.891 29.1C108.531 29.3 108.251 29.6067 108.051 30.02C107.851 30.4333 107.751 30.96 107.751 31.6V37H104.631V26.24H107.611V29.18L107.051 28.32C107.425 27.5867 107.951 27.0333 108.631 26.66C109.325 26.2733 110.111 26.08 110.991 26.08C111.978 26.08 112.838 26.3333 113.571 26.84C114.318 27.3333 114.811 28.0933 115.051 29.12L113.951 28.82C114.311 27.98 114.885 27.3133 115.671 26.82C116.471 26.3267 117.385 26.08 118.411 26.08ZM131.026 37.16C129.799 37.16 128.719 36.92 127.786 36.44C126.866 35.96 126.153 35.3067 125.646 34.48C125.139 33.64 124.886 32.6867 124.886 31.62C124.886 30.54 125.133 29.5867 125.626 28.76C126.133 27.92 126.819 27.2667 127.686 26.8C128.553 26.32 129.533 26.08 130.626 26.08C131.679 26.08 132.626 26.3067 133.466 26.76C134.319 27.2 134.993 27.84 135.486 28.68C135.979 29.5067 136.226 30.5 136.226 31.66C136.226 31.78 136.219 31.92 136.206 32.08C136.193 32.2267 136.179 32.3667 136.166 32.5H127.426V30.68H134.526L133.326 31.22C133.326 30.66 133.213 30.1733 132.986 29.76C132.759 29.3467 132.446 29.0267 132.046 28.8C131.646 28.56 131.179 28.44 130.646 28.44C130.113 28.44 129.639 28.56 129.226 28.8C128.826 29.0267 128.513 29.3533 128.286 29.78C128.059 30.1933 127.946 30.6867 127.946 31.26V31.74C127.946 32.3267 128.073 32.8467 128.326 33.3C128.593 33.74 128.959 34.08 129.426 34.32C129.906 34.5467 130.466 34.66 131.106 34.66C131.679 34.66 132.179 34.5733 132.606 34.4C133.046 34.2267 133.446 33.9667 133.806 33.62L135.466 35.42C134.973 35.98 134.353 36.4133 133.606 36.72C132.859 37.0133 131.999 37.16 131.026 37.16ZM144.843 26.08C145.697 26.08 146.457 26.2533 147.123 26.6C147.803 26.9333 148.337 27.4533 148.723 28.16C149.11 28.8533 149.303 29.7467 149.303 30.84V37H146.183V31.32C146.183 30.4533 145.99 29.8133 145.603 29.4C145.23 28.9867 144.697 28.78 144.003 28.78C143.51 28.78 143.063 28.8867 142.663 29.1C142.277 29.3 141.97 29.6133 141.743 30.04C141.53 30.4667 141.423 31.0133 141.423 31.68V37H138.303V26.24H141.283V29.22L140.723 28.32C141.11 27.6 141.663 27.0467 142.383 26.66C143.103 26.2733 143.923 26.08 144.843 26.08ZM156.531 37.16C155.265 37.16 154.278 36.84 153.571 36.2C152.865 35.5467 152.511 34.58 152.511 33.3V23.86H155.631V33.26C155.631 33.7133 155.751 34.0667 155.991 34.32C156.231 34.56 156.558 34.68 156.971 34.68C157.465 34.68 157.885 34.5467 158.231 34.28L159.071 36.48C158.751 36.7067 158.365 36.88 157.911 37C157.471 37.1067 157.011 37.16 156.531 37.16ZM150.851 28.88V26.48H158.311V28.88H150.851ZM170.887 37.16C169.62 37.16 168.634 36.84 167.927 36.2C167.22 35.5467 166.867 34.58 166.867 33.3V23.86H169.987V33.26C169.987 33.7133 170.107 34.0667 170.347 34.32C170.587 34.56 170.914 34.68 171.327 34.68C171.82 34.68 172.24 34.5467 172.587 34.28L173.427 36.48C173.107 36.7067 172.72 36.88 172.267 37C171.827 37.1067 171.367 37.16 170.887 37.16ZM165.207 28.88V26.48H172.667V28.88H165.207ZM175.178 37V26.24H178.298V37H175.178ZM176.738 24.74C176.165 24.74 175.698 24.5733 175.338 24.24C174.978 23.9067 174.798 23.4933 174.798 23C174.798 22.5067 174.978 22.0933 175.338 21.76C175.698 21.4267 176.165 21.26 176.738 21.26C177.312 21.26 177.778 21.42 178.138 21.74C178.498 22.0467 178.678 22.4467 178.678 22.94C178.678 23.46 178.498 23.8933 178.138 24.24C177.792 24.5733 177.325 24.74 176.738 24.74ZM185.594 37.16C184.327 37.16 183.341 36.84 182.634 36.2C181.927 35.5467 181.574 34.58 181.574 33.3V23.86H184.694V33.26C184.694 33.7133 184.814 34.0667 185.054 34.32C185.294 34.56 185.621 34.68 186.034 34.68C186.527 34.68 186.947 34.5467 187.294 34.28L188.134 36.48C187.814 36.7067 187.427 36.88 186.974 37C186.534 37.1067 186.074 37.16 185.594 37.16ZM179.914 28.88V26.48H187.374V28.88H179.914ZM189.885 37V22.16H193.005V37H189.885ZM201.241 37.16C200.014 37.16 198.934 36.92 198.001 36.44C197.081 35.96 196.368 35.3067 195.861 34.48C195.354 33.64 195.101 32.6867 195.101 31.62C195.101 30.54 195.348 29.5867 195.841 28.76C196.348 27.92 197.034 27.2667 197.901 26.8C198.768 26.32 199.748 26.08 200.841 26.08C201.894 26.08 202.841 26.3067 203.681 26.76C204.534 27.2 205.208 27.84 205.701 28.68C206.194 29.5067 206.441 30.5 206.441 31.66C206.441 31.78 206.434 31.92 206.421 32.08C206.408 32.2267 206.394 32.3667 206.381 32.5H197.641V30.68H204.741L203.541 31.22C203.541 30.66 203.428 30.1733 203.201 29.76C202.974 29.3467 202.661 29.0267 202.261 28.8C201.861 28.56 201.394 28.44 200.861 28.44C200.328 28.44 199.854 28.56 199.441 28.8C199.041 29.0267 198.728 29.3533 198.501 29.78C198.274 30.1933 198.161 30.6867 198.161 31.26V31.74C198.161 32.3267 198.288 32.8467 198.541 33.3C198.808 33.74 199.174 34.08 199.641 34.32C200.121 34.5467 200.681 34.66 201.321 34.66C201.894 34.66 202.394 34.5733 202.821 34.4C203.261 34.2267 203.661 33.9667 204.021 33.62L205.681 35.42C205.188 35.98 204.568 36.4133 203.821 36.72C203.074 37.0133 202.214 37.16 201.241 37.16Z" fill="white"/>
</g>
<defs>
<filter id="filter0_d_3_139" x="20" y="72" width="543" height="241" filterUnits="userSpaceOnUse" color-interpolation-filters="sRGB">
<feFlood flood-opacity="0" result="BackgroundImageFix"/>
<feColorMatrix in="SourceAlpha" type="matrix" values="0 0 0 0 0 0 0 0 0 0 0 0 0 0 0 0 0 0 127 0" result="hardAlpha"/>
<feOffset dy="1"/>
<feGaussianBlur stdDeviation="10"/>
<feComposite in2="hardAlpha" operator="out"/>
<feColorMatrix type="matrix" values="0 0 0 0 0 0 0 0 0 0 0 0 0 0 0 0 0 0 0.25 0"/>
<feBlend mode="normal" in2="BackgroundImageFix" result="effect1_dropShadow_3_139"/>
<feBlend mode="normal" in="SourceGraphic" in2="effect1_dropShadow_3_139" result="shape"/>
</filter>
</defs>
</svg>
